<svg width="310" height="310" viewBox="0 0 310 310" fill="none" xmlns="http://www.w3.org/2000/svg">
  <rect width="310" height="310" rx="10" fill="url(#paint0_linear)" />
  <path
    d="M243.918 109.418H206.043C203.455 109.418 202.193 107.393 200.488 106.064C192.879 99.6358 183.877 95.0768 174.201 92.7496C164.524 90.4223 154.439 90.3911 144.748 92.6585C135.058 94.9258 126.028 99.429 118.379 105.81C110.73 112.191 104.672 120.273 100.687 129.414C95.5264 139.94 93.4851 151.728 94.8053 163.381C96.1256 175.035 100.752 186.064 108.136 195.161C113.884 202.814 121.275 209.073 129.762 213.476C138.249 217.879 147.614 220.313 157.166 220.599C166.718 220.884 176.212 219.014 184.945 215.126C193.678 211.237 201.428 205.431 207.621 198.136C208.576 196.801 209.853 195.729 211.332 195.021C212.81 194.313 214.444 193.991 216.08 194.086C225.17 194.402 234.26 194.086 243.287 194.086C247.075 194.086 247.895 194.719 246.065 198.325C239.576 212.089 229.879 224.085 217.794 233.303C205.709 242.522 191.59 248.691 176.627 251.29C156.415 255.165 135.496 252.414 116.965 243.445C98.4344 234.476 83.2759 219.765 73.7328 201.489C62.3509 179.319 59.9162 153.607 66.9335 129.686C73.9508 105.764 89.8817 85.4668 111.424 73.0013C132.966 60.5358 158.467 56.8583 182.641 62.7311C206.815 68.6039 227.808 83.5765 241.267 104.545C242.025 105.748 242.656 107.076 243.918 109.418Z"
    fill="white" />
  <defs>
    <linearGradient id="paint0_linear" x1="310" y1="155" x2="-105.969" y2="155" gradientUnits="userSpaceOnUse">
      <stop stop-color="#03C9E6" />
      <stop offset="1" stop-color="#126FE2" />
    </linearGradient>
  </defs>
</svg>