<?xml version="1.0" standalone="no"?>
<!DOCTYPE svg PUBLIC "-//W3C//DTD SVG 20010904//EN" "http://www.w3.org/TR/2001/REC-SVG-20010904/DTD/svg10.dtd">
<svg version="1.0" xmlns="http://www.w3.org/2000/svg" width="310.000000pt" height="310.000000pt"
  viewBox="0 0 310.000000 310.000000" preserveAspectRatio="xMidYMid meet">
  <metadata>
    Created by potrace 1.14, written by Peter Selinger 2001-2017
  </metadata>
  <g transform="translate(0.000000,310.000000) scale(0.100000,-0.100000)" fill="#000000" stroke="none">
    <path d="M48 3083 c-14 -9 -31 -27 -37 -40 -15 -33 -15 -2937 -1 -2980 6 -16
23 -37 39 -46 27 -16 135 -17 1496 -17 1603 0 1517 -3 1544 56 8 18 11 417 11
1494 0 1077 -3 1476 -11 1494 -27 59 59 56 -1546 56 -1350 -1 -1470 -2 -1495
-17z" />
  </g>
</svg>